<?xml version="1.0" standalone="no"?>
<!DOCTYPE svg PUBLIC "-//W3C//DTD SVG 20010904//EN"
 "http://www.w3.org/TR/2001/REC-SVG-20010904/DTD/svg10.dtd">
<svg version="1.0" xmlns="http://www.w3.org/2000/svg"
 width="2133.000000pt" height="2133.000000pt" viewBox="0 0 2133.000000 2133.000000"
 preserveAspectRatio="xMidYMid meet">
<metadata>
Created by potrace 1.16, written by Peter Selinger 2001-2019
</metadata>
<g transform="translate(0.000000,2133.000000) scale(0.100000,-0.100000)"
fill="#000000" stroke="none">
<path d="M3650 20614 c-334 -32 -669 -186 -901 -415 -90 -89 -147 -167 -219
-296 -161 -293 -172 -421 -191 -2194 -10 -857 -10 -2405 0 -7115 11 -5833 18
-7114 41 -7563 13 -250 26 -337 76 -486 155 -465 365 -709 790 -919 275 -136
425 -166 826 -166 389 0 648 69 1088 291 286 144 571 310 1255 734 1922 1191
3850 2320 8730 5115 2780 1592 3112 1794 3398 2069 134 130 217 252 342 506
80 164 86 194 92 457 8 354 -15 493 -107 629 -146 215 -425 496 -763 767 -159
127 -358 262 -1382 937 -5399 3559 -9886 6414 -11140 7087 -301 162 -635 308
-920 403 -330 110 -550 153 -810 159 -88 2 -180 2 -205 0z"/>
</g>
</svg>
